<svg width="60" height="60" viewBox="0 0 60 60" fill="none" xmlns="http://www.w3.org/2000/svg">
<path d="M51.8182 37.1429V45.7143H60V51.4286H51.8182V60H46.3636V51.4286H38.1818V45.7143H46.3636V37.1429H51.8182ZM30 31.4286C27 31.4286 24.5455 34 24.5455 37.1429C24.5455 40.2857 27 42.8571 30 42.8571C33 42.8571 35.4545 40.2857 35.4545 37.1429C35.4545 34 33 31.4286 30 31.4286ZM33.6818 54.2857H12.2727C9.76364 54.2857 7.66364 52.5143 7.03636 50.1143L0.109091 23.6286C-9.71815e-08 23.3714 0 23.1143 0 22.8571C0 21.2857 1.22727 20 2.72727 20H15.7909L27.7364 1.28571C28.2545 0.457143 29.1273 0 30 0C30.8727 0 31.7455 0.457143 32.2636 1.25714L44.2091 20H57.2727C58.7727 20 60 21.2857 60 22.8571L59.9182 23.6286L57.2727 33.7429C55.7182 32.8571 53.9727 32.1143 52.1455 31.7429L53.7273 25.7143H6.3L12.2727 48.5714H32.7273C32.7273 50.5714 33.0818 52.4857 33.6818 54.2857ZM22.3636 20H37.6364L30 8L22.3636 20Z" fill="#495E57"/>
</svg>
